<svg id="Capa_1" data-name="Capa 1" xmlns="http://www.w3.org/2000/svg" viewBox="0 0 289.71 272.99"><defs><style>.cls-1{fill:none;stroke:#1f140f;stroke-miterlimit:10;stroke-width:6px;}.cls-2{fill:#1f140f;}</style></defs><path class="cls-1" d="M418.47,176a48.52,48.52,0,0,0-7.19.77,78.82,78.82,0,0,1,9.66-.78" transform="translate(-274.08 -173.01)"/><path class="cls-1" d="M431.86,176.58c-3.52-.34-7.07-.54-10.66-.56h-.11" transform="translate(-274.08 -173.01)"/><path class="cls-1" d="M543.82,297.64a77.48,77.48,0,0,0-77.48-75.13,46.51,46.51,0,1,1-55.07-45.72,79.14,79.14,0,0,1,9.67-.78h.1s0,0,0,0h.12c3.59,0,7.14.22,10.65.56A124,124,0,0,1,543.82,297.64Z" transform="translate(-274.08 -173.01)"/><path class="cls-1" d="M418.47,176a48.52,48.52,0,0,0-7.19.77,78.82,78.82,0,0,1,9.66-.78" transform="translate(-274.08 -173.01)"/><path class="cls-1" d="M344.81,253.51v.08a46.51,46.51,0,1,1-49,47.81.31.31,0,0,1,0-.1h0v0c0-.4,0-.79,0-1.2s0-.8,0-1.2a0,0,0,0,0,0,0v0a.37.37,0,0,1,0-.11.62.62,0,0,1,0-.13v-.06c0-.15,0-.29,0-.44a1,1,0,0,0,0-.17A124,124,0,0,1,418.47,176a48.8,48.8,0,0,0-7.2.77,77.44,77.44,0,0,0-66.46,76.72Z" transform="translate(-274.08 -173.01)"/><path class="cls-1" d="M543.86,300c0,.51,0,1,0,1.52V302c0,.15,0,.29,0,.44A124,124,0,0,1,422,424a77.57,77.57,0,0,0,70.73-51.1h0a77.17,77.17,0,0,0,4.62-26.38,46.52,46.52,0,1,1,0-93c.82,0,1.65,0,2.48.08a46.51,46.51,0,0,1,44,44.92C543.85,299,543.86,299.52,543.86,300Z" transform="translate(-274.08 -173.01)"/><path class="cls-1" d="M466.34,377.54A46.52,46.52,0,0,1,421.27,424h-3.61A124,124,0,0,1,295.84,302.21a77.45,77.45,0,0,0,77.49,75.33,46.51,46.51,0,1,1,93,0Z" transform="translate(-274.08 -173.01)"/><path class="cls-2" d="M283.56,316.85l.21,1.32-9.48,1.55-.21-1.33Zm-4.67,4,.52,1.28-4.21,3.17-.25-1.57Zm.55-2.74.53,3.23a1.21,1.21,0,0,0,.88,1,1.94,1.94,0,0,0,.8,0,1.79,1.79,0,0,0,.75-.29,1.25,1.25,0,0,0,.44-.53,1.29,1.29,0,0,0,.08-.71l-.53-3.23,1.26-.2.52,3.18a3,3,0,0,1-.1,1.49,2.42,2.42,0,0,1-.81,1.13,3.24,3.24,0,0,1-2.87.46,2.39,2.39,0,0,1-1.12-.81,3.06,3.06,0,0,1-.57-1.38l-.52-3.18Z" transform="translate(-274.08 -173.01)"/><path class="cls-2" d="M277,332.14a2.31,2.31,0,0,1,.76-1.19,3.53,3.53,0,0,1,1.48-.71l1.08-.28a3.51,3.51,0,0,1,1.63-.06,2.37,2.37,0,0,1,1.22.69,3.19,3.19,0,0,1,.7,1.4,3.08,3.08,0,0,1,0,1.56,2.23,2.23,0,0,1-.75,1.18,3.39,3.39,0,0,1-1.46.72l-1.1.27a3.43,3.43,0,0,1-1.64.07,2.37,2.37,0,0,1-1.22-.69,3.25,3.25,0,0,1-.71-1.4A3.19,3.19,0,0,1,277,332.14Zm2,2.2a1.82,1.82,0,0,0,1.3.08l1.1-.28a1.75,1.75,0,0,0,1.1-.68,1.35,1.35,0,0,0,.16-1.16,1.36,1.36,0,0,0-.69-1,1.84,1.84,0,0,0-1.29-.07l-1.1.28a1.81,1.81,0,0,0-1.11.67,1.38,1.38,0,0,0-.16,1.17A1.32,1.32,0,0,0,278.94,334.34Z" transform="translate(-274.08 -173.01)"/><path class="cls-2" d="M280.11,343.41a2.09,2.09,0,0,1,.64-1.08,3.81,3.81,0,0,1,1.34-.74l1.43-.49a3.73,3.73,0,0,1,1.52-.22,2,2,0,0,1,1.16.44,2.32,2.32,0,0,1,.71,1.07,2.05,2.05,0,0,1,0,1.15,2.23,2.23,0,0,1-.58,1.06l-1.37.32a1.59,1.59,0,0,0,.66-.39,1.08,1.08,0,0,0,.3-.58,1.55,1.55,0,0,0-.09-.75,1.28,1.28,0,0,0-.72-.84,1.64,1.64,0,0,0-1.23,0l-1.41.47a1.66,1.66,0,0,0-1,.72,1.33,1.33,0,0,0-.06,1.11,1.63,1.63,0,0,0,.4.64,1.19,1.19,0,0,0,.6.28,1.63,1.63,0,0,0,.77-.1l-1.33.55a2,2,0,0,1-1-.36,1.92,1.92,0,0,1-.69-1A2.44,2.44,0,0,1,280.11,343.41Zm9.86-.17.43,1.28-9.09,3.08-.43-1.28Z" transform="translate(-274.08 -173.01)"/><path class="cls-2" d="M284.33,354.65a2.28,2.28,0,0,1,.56-1.29,3.46,3.46,0,0,1,1.35-.94l1-.45a3.57,3.57,0,0,1,1.6-.32,2.29,2.29,0,0,1,1.31.49,3.06,3.06,0,0,1,.92,1.26,3.16,3.16,0,0,1,.29,1.54,2.33,2.33,0,0,1-.55,1.29,3.44,3.44,0,0,1-1.33.93l-1,.45a3.52,3.52,0,0,1-1.61.33,2.29,2.29,0,0,1-1.31-.49,3.1,3.1,0,0,1-.93-1.26A3.26,3.26,0,0,1,284.33,354.65Zm2.3,1.86a1.82,1.82,0,0,0,1.29-.13l1.05-.45a1.82,1.82,0,0,0,1-.85,1.38,1.38,0,0,0,0-1.17,1.36,1.36,0,0,0-.83-.83,1.79,1.79,0,0,0-1.28.13l-1.05.45a1.75,1.75,0,0,0-1,.85,1.34,1.34,0,0,0,0,1.17A1.37,1.37,0,0,0,286.63,356.51Z" transform="translate(-274.08 -173.01)"/><path class="cls-2" d="M289.39,365.48a2.32,2.32,0,0,1,.43-1.37,3.36,3.36,0,0,1,1.26-1.06l1-.52a3.37,3.37,0,0,1,1.57-.44,2.42,2.42,0,0,1,1.37.43,3.34,3.34,0,0,1,1.05,1.26,3.9,3.9,0,0,1,.35,1,3.23,3.23,0,0,1,.07.92,2.28,2.28,0,0,1-.24.83L295,366a1.86,1.86,0,0,0,.13-.84,1.88,1.88,0,0,0-.22-.8,1.6,1.6,0,0,0-.95-.87,1.68,1.68,0,0,0-1.28.2l-1,.52a1.78,1.78,0,0,0-.91,1,1.61,1.61,0,0,0,.17,1.28,1.79,1.79,0,0,0,.55.64,2.06,2.06,0,0,0,.79.34l-.37,1.3a2.44,2.44,0,0,1-.82-.29,3.17,3.17,0,0,1-.71-.58,3.52,3.52,0,0,1-.58-.83A3.41,3.41,0,0,1,289.39,365.48Z" transform="translate(-274.08 -173.01)"/><path class="cls-2" d="M299.9,370.75l.71,1.14-5.82,3.63-.71-1.15Zm.65,3.5a1.68,1.68,0,0,0-.23-.59,1.41,1.41,0,0,0-.83-.66,1.36,1.36,0,0,0-1,.22l1-.81a2.41,2.41,0,0,1,1.24.19,2,2,0,0,1,.88.76,2.78,2.78,0,0,1,.33.79,1.87,1.87,0,0,1,0,.78l-1.47-.12A1.17,1.17,0,0,0,300.55,374.25Z" transform="translate(-274.08 -173.01)"/><path class="cls-2" d="M300.47,383.62a2.3,2.3,0,0,1,.25-1.38,3.6,3.6,0,0,1,1.11-1.22l.9-.66a3.45,3.45,0,0,1,1.49-.67,2.24,2.24,0,0,1,1.38.19,3,3,0,0,1,1.18,1,3.12,3.12,0,0,1,.62,1.44,2.37,2.37,0,0,1-.24,1.38,3.54,3.54,0,0,1-1.1,1.21l-.91.67a3.69,3.69,0,0,1-1.49.67,2.29,2.29,0,0,1-1.39-.19,3,3,0,0,1-1.18-1A3.12,3.12,0,0,1,300.47,383.62Zm2.65,1.31a1.87,1.87,0,0,0,1.23-.42l.92-.67a1.81,1.81,0,0,0,.77-1,1.38,1.38,0,0,0-.29-1.14,1.41,1.41,0,0,0-1-.63,1.81,1.81,0,0,0-1.22.42l-.92.67a1.84,1.84,0,0,0-.78,1,1.38,1.38,0,0,0,.29,1.14A1.41,1.41,0,0,0,303.12,384.93Z" transform="translate(-274.08 -173.01)"/><path class="cls-2" d="M307.68,393.28a4.09,4.09,0,0,1-.37-1,4,4,0,0,1-.11-1l1.27,0a4.27,4.27,0,0,0,.24,1.25,3,3,0,0,0,.54,1,2.25,2.25,0,0,0,1,.75A.79.79,0,0,0,311,394a.57.57,0,0,0,.24-.49,1.39,1.39,0,0,0-.19-.55c-.11-.19-.28-.44-.51-.76l-.07-.09-.07-.09,0,0,0,0a4.93,4.93,0,0,1-.59-1,1.55,1.55,0,0,1-.1-.93,1.83,1.83,0,0,1,.65-1,2.34,2.34,0,0,1,1.11-.56,1.85,1.85,0,0,1,1.13.21,4,4,0,0,1,1.14,1,5.51,5.51,0,0,1,.59.83,4.55,4.55,0,0,1,.56,1.87l-1.28,0a4.35,4.35,0,0,0-.28-1.09,3.1,3.1,0,0,0-.51-.85,1.88,1.88,0,0,0-.85-.63.82.82,0,0,0-.76.2.49.49,0,0,0-.19.42,1.28,1.28,0,0,0,.18.49c.11.17.27.4.49.69l.05.07.06.07,0,0,0,0a5.28,5.28,0,0,1,.65,1.05,1.62,1.62,0,0,1,.12,1,2,2,0,0,1-.72,1.07,2.18,2.18,0,0,1-1.14.56,2,2,0,0,1-1.17-.25,4.59,4.59,0,0,1-1.23-1.06A5.47,5.47,0,0,1,307.68,393.28Z" transform="translate(-274.08 -173.01)"/><path class="cls-2" d="M319.4,396.05l.94,1-4.9,4.78-.95-1Zm2-1.92.94,1-1,.94-.94-1Z" transform="translate(-274.08 -173.01)"/><path class="cls-2" d="M320.76,406.37a2.06,2.06,0,0,1,.64-1.26l4.77-5.21,1,.91L322.38,406a.64.64,0,0,0-.19.35.32.32,0,0,0,.13.29l.47.44-.86.94-.58-.52A1.53,1.53,0,0,1,320.76,406.37Zm3.54-5.48,2.28,2.09-.82.89-2.28-2.08Z" transform="translate(-274.08 -173.01)"/><path class="cls-2" d="M327.82,412.71a2.44,2.44,0,0,1-.15-1.46,3.66,3.66,0,0,1,.76-1.53l.48-.6a4.07,4.07,0,0,1,1.35-1.15,2.47,2.47,0,0,1,1.45-.24,3,3,0,0,1,1.46.67,2.47,2.47,0,0,1,.88,1.25,2.66,2.66,0,0,1-.05,1.55,5.25,5.25,0,0,1-1,1.72l-.28.36-3.62-2.88.68-.85,2.61,2.08a2.3,2.3,0,0,0,.48-1.29,1.24,1.24,0,0,0-.5-1,1.47,1.47,0,0,0-1.24-.34,2.14,2.14,0,0,0-1.21.85l-.54.68a1.74,1.74,0,0,0-.46,1.3,1.67,1.67,0,0,0,.71,1.15,2.08,2.08,0,0,0,.74.38,2.44,2.44,0,0,0,.85.09l.14,1.24a3.87,3.87,0,0,1-1.36-.12,3.29,3.29,0,0,1-1.17-.58A3.65,3.65,0,0,1,327.82,412.71Z" transform="translate(-274.08 -173.01)"/><path class="cls-2" d="M375,428.52l1.73.56-3,9.14-1.73-.56Zm-.54,4,3.18,1a.89.89,0,0,0,.51,0,.87.87,0,0,0,.43-.27,1.44,1.44,0,0,0,.3-.53,1.41,1.41,0,0,0,.07-.6.86.86,0,0,0-.19-.48.88.88,0,0,0-.43-.28l-3.18-1,.54-1.66,3.32,1.07a2.75,2.75,0,0,1,1.21.77,2.42,2.42,0,0,1,.58,1.24,3.63,3.63,0,0,1-.93,2.88,2.48,2.48,0,0,1-1.2.67,2.71,2.71,0,0,1-1.43-.09l-3.32-1.07Zm1.48,2,1.93.3,1.1,5-2.09-.67Z" transform="translate(-274.08 -173.01)"/><path class="cls-2" d="M386.91,432.09l1.76.4-2.15,9.36-1.77-.41Zm2.64,6.2a1,1,0,0,0-.11-.83,1.13,1.13,0,0,0-.73-.45,1,1,0,0,0-.82.1,1,1,0,0,0-.44.7l.2-1.51a2.66,2.66,0,0,1,.94-.78,1.86,1.86,0,0,1,1.13-.07,2,2,0,0,1,1.47,1.09,3.15,3.15,0,0,1,.12,2.14l-.93,4.06-1.77-.41Z" transform="translate(-274.08 -173.01)"/><path class="cls-2" d="M397.78,443.83a2.35,2.35,0,0,1-.85-1.16,3.38,3.38,0,0,1-.11-1.64l.16-1.11a3.49,3.49,0,0,1,.57-1.53,2.44,2.44,0,0,1,1.15-.85,3.91,3.91,0,0,1,3.17.46,2.33,2.33,0,0,1,.85,1.15,3.43,3.43,0,0,1,.11,1.62l-.16,1.13a3.4,3.4,0,0,1-.57,1.53,2.39,2.39,0,0,1-1.15.86,3.34,3.34,0,0,1-1.63.12A3.49,3.49,0,0,1,397.78,443.83Zm2.67-1.34a1.31,1.31,0,0,0,.43-.85l.16-1.13a1.2,1.2,0,0,0-.17-.92,1.1,1.1,0,0,0-.8-.44,1.09,1.09,0,0,0-.87.19,1.22,1.22,0,0,0-.43.84l-.16,1.13a1.23,1.23,0,0,0,.16.93,1.1,1.1,0,0,0,.79.44A1.14,1.14,0,0,0,400.45,442.49Z" transform="translate(-274.08 -173.01)"/><path class="cls-2" d="M409.28,445.2a2.19,2.19,0,0,1-.72-1.06,4.32,4.32,0,0,1-.17-1.62l.08-1.09a4.33,4.33,0,0,1,.38-1.6A2,2,0,0,1,411,438.6a1.65,1.65,0,0,1,1,.39,2.36,2.36,0,0,1,.66,1l-.24,1.5a1.27,1.27,0,0,0-.08-.6.84.84,0,0,0-.32-.4,1.11,1.11,0,0,0-.54-.16,1,1,0,0,0-.81.29,1.55,1.55,0,0,0-.35.95l-.07,1.09a1.4,1.4,0,0,0,.22,1,.94.94,0,0,0,.76.39,1.25,1.25,0,0,0,.56-.09.81.81,0,0,0,.37-.34,1.32,1.32,0,0,0,.16-.56l0,1.56a1.68,1.68,0,0,1-1.76,1.06A2.08,2.08,0,0,1,409.28,445.2Zm3.46-9.14,1.8.13-.65,9.57-1.8-.12Z" transform="translate(-274.08 -173.01)"/><path class="cls-2" d="M421.38,445.67a2.27,2.27,0,0,1-1-1,3.45,3.45,0,0,1-.37-1.61v-1.11a3.47,3.47,0,0,1,.32-1.6,2.29,2.29,0,0,1,1-1,3.41,3.41,0,0,1,1.6-.37,3.32,3.32,0,0,1,1.6.33,2.22,2.22,0,0,1,1,1,3.39,3.39,0,0,1,.37,1.59V443a3.44,3.44,0,0,1-.32,1.6,2.37,2.37,0,0,1-1,1,3.41,3.41,0,0,1-1.6.37A3.32,3.32,0,0,1,421.38,445.67Zm2.42-1.74a1.3,1.3,0,0,0,.3-.91l0-1.13a1.23,1.23,0,0,0-.31-.89,1.29,1.29,0,0,0-1.7,0,1.3,1.3,0,0,0-.29.9l0,1.13a1.26,1.26,0,0,0,.31.9,1.11,1.11,0,0,0,.85.31A1.15,1.15,0,0,0,423.8,443.93Z" transform="translate(-274.08 -173.01)"/><path class="cls-2" d="M431.37,436l1.8-.18.94,9.56-1.8.18Zm1.66,5.72,3.25-6.2,2.27-.23L433.49,444Zm1.48-1.26,1.45-1.14,3.93,5.49-2.13.21Z" transform="translate(-274.08 -173.01)"/><path class="cls-2" d="M444,437.21l1.91-.34,1.21,6.74-1.91.34Zm3.78,1.06a1.38,1.38,0,0,0-.45,0,1.07,1.07,0,0,0-.77.5,1.42,1.42,0,0,0-.12,1l-.45-1.73a2.42,2.42,0,0,1,.55-1.07,1.61,1.61,0,0,1,.92-.51,2.34,2.34,0,0,1,.79,0,1.78,1.78,0,0,1,.66.29l-.78,1.64A.72.72,0,0,0,447.73,438.27Z" transform="translate(-274.08 -173.01)"/><path class="cls-2" d="M456.17,441.44a2.44,2.44,0,0,1-1.24-.74,3.49,3.49,0,0,1-.73-1.48l-.28-1.08a3.26,3.26,0,0,1-.06-1.63,2.35,2.35,0,0,1,.72-1.23,4,4,0,0,1,3.11-.8,2.43,2.43,0,0,1,1.23.73,3.52,3.52,0,0,1,.73,1.46l.28,1.1a3.3,3.3,0,0,1,.06,1.64,2.35,2.35,0,0,1-.72,1.23,3.4,3.4,0,0,1-1.47.74A3.51,3.51,0,0,1,456.17,441.44Zm1.94-2.27a1.26,1.26,0,0,0,.07-.95l-.28-1.1a1.28,1.28,0,0,0-.52-.79,1.14,1.14,0,0,0-.9-.09,1.12,1.12,0,0,0-.74.51,1.29,1.29,0,0,0-.07.94l.28,1.1a1.27,1.27,0,0,0,.52.8,1.07,1.07,0,0,0,.89.1A1.12,1.12,0,0,0,458.11,439.17Z" transform="translate(-274.08 -173.01)"/><path class="cls-2" d="M467.9,438.28a4.81,4.81,0,0,1-1.13.05,4,4,0,0,1-1-.18l.61-1.68a4.42,4.42,0,0,0,1.14.12,3.64,3.64,0,0,0,1-.17,2.63,2.63,0,0,0,.88-.46c.19-.16.26-.32.2-.48a.4.4,0,0,0-.25-.28.86.86,0,0,0-.43,0,5.72,5.72,0,0,0-.66.13l-.23.05-.25.06h-.11a7.82,7.82,0,0,1-1.24.17,1.51,1.51,0,0,1-.92-.28,1.91,1.91,0,0,1-.69-1,2,2,0,0,1-.07-1.21,2.05,2.05,0,0,1,.66-1,4.15,4.15,0,0,1,1.36-.73,5.82,5.82,0,0,1,1-.24,5.09,5.09,0,0,1,1,0,4.45,4.45,0,0,1,1,.16l-.59,1.59a4.37,4.37,0,0,0-1-.06,3.93,3.93,0,0,0-.93.17,2.21,2.21,0,0,0-.76.4.41.41,0,0,0-.18.43.31.31,0,0,0,.24.2,1.54,1.54,0,0,0,.43,0l.7-.14.11,0,.12,0,.06,0h.06a9.26,9.26,0,0,1,1.3-.2,1.82,1.82,0,0,1,1,.27,2,2,0,0,1,.75,1.1,2,2,0,0,1-.62,2.33,4.23,4.23,0,0,1-1.42.77A6.21,6.21,0,0,1,467.9,438.28Z" transform="translate(-274.08 -173.01)"/><path class="cls-2" d="M511.72,414.82a5.07,5.07,0,0,1-1.15.4,4.79,4.79,0,0,1-1.2.11l0-1.33a3.81,3.81,0,0,0,1.39-.19,4.2,4.2,0,0,0,1.27-.7,2.85,2.85,0,0,0,1-1.31,1.24,1.24,0,0,0-.22-1.21h0a1.19,1.19,0,0,0-.7-.46,1.6,1.6,0,0,0-.8.08,7.73,7.73,0,0,0-1,.45l0,0,0,0-.09,0a10.4,10.4,0,0,1-1.46.68,2.22,2.22,0,0,1-1.28.05,2.59,2.59,0,0,1-1.31-1h0a3,3,0,0,1-.63-1.45,2.54,2.54,0,0,1,.32-1.47,4.6,4.6,0,0,1,1.25-1.4,3.66,3.66,0,0,1,.86-.54,4.56,4.56,0,0,1,1-.35,4.78,4.78,0,0,1,1.09-.15l.07,1.31a4.66,4.66,0,0,0-1.24.2,3.28,3.28,0,0,0-1,.52,2.69,2.69,0,0,0-1,1.26,1.3,1.3,0,0,0,.27,1.21h0a1.07,1.07,0,0,0,.7.44,1.74,1.74,0,0,0,.81-.1,10.39,10.39,0,0,0,1.09-.51l.05,0,0,0,.07,0,.06,0a7.43,7.43,0,0,1,1.41-.57,2.22,2.22,0,0,1,1.25,0,2.52,2.52,0,0,1,1.23.93h0a2.68,2.68,0,0,1,.61,1.43,2.6,2.6,0,0,1-.36,1.5,5.11,5.11,0,0,1-1.29,1.43A6.61,6.61,0,0,1,511.72,414.82Z" transform="translate(-274.08 -173.01)"/><path class="cls-2" d="M513.8,400.61l1-.9.91,1-1,.91Zm1.85,2,1-.9,4.61,5.07-1,.91Z" transform="translate(-274.08 -173.01)"/><path class="cls-2" d="M525.59,400.16a.64.64,0,0,0,.36.19.38.38,0,0,0,.31-.12l.44-.46.91.9-.55.57a1.52,1.52,0,0,1-1.17.51,2,2,0,0,1-1.25-.65l-5.56-5.49.94-1Z" transform="translate(-274.08 -173.01)"/><path class="cls-2" d="M529.12,388.75l.92-1.06,3.5,6.43-.67.77L526,392.35l.92-1.06,4.79,1.93Z" transform="translate(-274.08 -173.01)"/><path class="cls-2" d="M539.27,386.59a2.41,2.41,0,0,1-1.45.21,3.65,3.65,0,0,1-1.55-.71l-.63-.46a4.1,4.1,0,0,1-1.19-1.3,2.49,2.49,0,0,1-.3-1.45,3.09,3.09,0,0,1,.63-1.47,2.5,2.5,0,0,1,1.21-.93,2.72,2.72,0,0,1,1.55,0,5.35,5.35,0,0,1,1.76.9l.36.27-2.74,3.72-.88-.65,2-2.68a2.28,2.28,0,0,0-1.31-.43,1.24,1.24,0,0,0-1,.53,1.48,1.48,0,0,0-.3,1.25,2.17,2.17,0,0,0,.9,1.18l.7.52a1.8,1.8,0,0,0,1.32.41,1.72,1.72,0,0,0,1.12-.75,2.15,2.15,0,0,0,.35-.75,2.26,2.26,0,0,0,0-.86l1.24-.18a3.65,3.65,0,0,1-.07,1.36,3.32,3.32,0,0,1-.54,1.19A3.42,3.42,0,0,1,539.27,386.59Z" transform="translate(-274.08 -173.01)"/><path class="cls-2" d="M539.74,374.43l.71-1.14,5.8,3.64-.71,1.14Zm2.86-2.13a1.79,1.79,0,0,0-.43.47,1.36,1.36,0,0,0-.23,1,1.3,1.3,0,0,0,.64.82l-1.19-.58a2.54,2.54,0,0,1-.37-1.2,1.91,1.91,0,0,1,.3-1.12,2.61,2.61,0,0,1,.57-.65,2,2,0,0,1,.69-.35l.54,1.38A1.11,1.11,0,0,0,542.6,372.3Z" transform="translate(-274.08 -173.01)"/><path class="cls-2" d="M551.57,357.11l.21.11a1,1,0,0,1,.2.64,2,2,0,0,1-.21.77,2.07,2.07,0,0,1-.82.95,2.23,2.23,0,0,1-1.24.32,3.44,3.44,0,0,1-1.46-.36h0a3.64,3.64,0,0,1-1.31-1,2.21,2.21,0,0,1-.53-1.26,2.84,2.84,0,0,1,.3-1.46,2.72,2.72,0,0,1,.92-1.16,2.29,2.29,0,0,1,1.31-.41,3.86,3.86,0,0,1,1.59.39h0a4.36,4.36,0,0,1,.94.58,6.37,6.37,0,0,1,.9.83l.12.14.13.15,2.87,3.59-.61,1.31Zm-.73-.41a1.92,1.92,0,0,0-1-.82h0a1.82,1.82,0,0,0-1.21-.18,1.19,1.19,0,0,0-.79.72,1.22,1.22,0,0,0,0,1.07,1.9,1.9,0,0,0,.93.81h0a1.85,1.85,0,0,0,1.24.19,1.21,1.21,0,0,0,.8-.72A1.19,1.19,0,0,0,550.84,356.7Z" transform="translate(-274.08 -173.01)"/><path class="cls-2" d="M557.91,351.41l-3-4.69a3.37,3.37,0,0,0-.59-.7,2.29,2.29,0,0,0-.66-.42h0a1.23,1.23,0,0,0-1,0,1.4,1.4,0,0,0-.63.79,1.35,1.35,0,0,0,0,1,1.6,1.6,0,0,0,.76.76h0l-.48,1.31h0a3.68,3.68,0,0,1-1.15-1,2.47,2.47,0,0,1-.51-1.2,2.74,2.74,0,0,1,.18-1.36,3.35,3.35,0,0,1,.78-1.27,2.11,2.11,0,0,1,1.13-.57,2.74,2.74,0,0,1,1.38.17h0a3.07,3.07,0,0,1,.93.57,4.72,4.72,0,0,1,.79.92l2.58,3.92,1.26-3.4,1.2.44L559,351.82Z" transform="translate(-274.08 -173.01)"/><path class="cls-2" d="M563,339.4a2.32,2.32,0,0,1-1,.66,3.27,3.27,0,0,1-1.38.1h0l.37-1.3h0a1.24,1.24,0,0,0,.9-.18,1.37,1.37,0,0,0,.53-.8,1.22,1.22,0,0,0-.14-1.08,1.87,1.87,0,0,0-1.08-.67l-.77-.22a1.86,1.86,0,0,0-1.26,0,1.21,1.21,0,0,0-.69.85,1.28,1.28,0,0,0,0,.7,2.1,2.1,0,0,0,.38.7l-.33,1.18L553.64,338l1.34-4.71,1.23.35-1,3.41,2.08.59a2,2,0,0,1-.09-1.27,2.72,2.72,0,0,1,.72-1.27,2.13,2.13,0,0,1,1.21-.59,3.67,3.67,0,0,1,1.61.14l.78.21a3.74,3.74,0,0,1,1.45.74,2.31,2.31,0,0,1,.71,1.17,3,3,0,0,1-.06,1.5A2.77,2.77,0,0,1,563,339.4Z" transform="translate(-274.08 -173.01)"/></svg>